# xmcd CD database file
#
# Track frame offsets:
#	150
#	8630
#	29272
#	56175
#	83047
#	112335
#	150150
#	171825
#	196047
#	219262
#	246022
#	269700
#	289725
#
# Disc length: 4214 seconds
#
# Revision: 1
# Processed by: cddbd v1.5.2PL0 Copyright (c) Steve Scherf et al.
# Submitted via: CDex 1.70beta2
#
DISCID=ad10740d
DTITLE=Various Artist - Jazz Thing presents the Best of Scandinavian Jazz On Stunt Records
DYEAR=1900
DGENRE=Jazz
TTITLE0=Hans Ulrik - Strange World
TTITLE1=Hans Ulrik - Letting Go
TTITLE2=Christina Nielsen - Just Beginning
TTITLE3=Thomas Hass - Refugies
TTITLE4=Tango Orkestret - Lo Que Vendra
TTITLE5=Emborg-Larsen Group - Northern Winter
TTITLE6=Jens Winther Group - The Moon
TTITLE7=Trine-Lise Vaering - What If
TTITLE8=Niels Thybo - Unexpected
TTITLE9=Acoustic Guitars - Blue Lotus
TTITLE10=Amazing Amazons - O Norte
TTITLE11=Marie Bergman - Wish Someone Would Care
TTITLE12=Lars Moeller - Torn Lovers
EXTD=
EXTT0=
EXTT1=
EXTT2=
EXTT3=
EXTT4=
EXTT5=
EXTT6=
EXTT7=
EXTT8=
EXTT9=
EXTT10=
EXTT11=
EXTT12=
PLAYORDER=
